0
SECTION
2
ENTITIES
0
LWPOLYLINE
8
a_control
90
4
70
1
10
-105.00000
20
-15.75000
10
105.00000
20
-15.75000
10
105.00000
20
15.75000
10
-105.00000
20
15.75000
0
CIRCLE
8
a_control_truck_pivots
10
-72.00000
20
0.00000
40
2.4
0
CIRCLE
8
a_control_truck_pivots
10
72.00000
20
0.00000
40
2.4
0
CIRCLE
8
a_control_screw_pilots
10
-97.00000
20
0.00000
40
0.85
0
CIRCLE
8
a_control_screw_pilots
10
97.00000
20
0.00000
40
0.85
0
CIRCLE
8
a_control_screw_pilots
10
-79.00000
20
0.00000
40
0.85
0
CIRCLE
8
a_control_screw_pilots
10
79.00000
20
0.00000
40
0.85
0
LWPOLYLINE
8
center_turbine
90
4
70
1
10
-166.00000
20
-76.25000
10
166.00000
20
-76.25000
10
166.00000
20
-43.75000
10
-166.00000
20
-43.75000
0
CIRCLE
8
center_turbine_truck_pivots
10
-124.00000
20
-60.00000
40
2.4
0
CIRCLE
8
center_turbine_truck_pivots
10
-42.00000
20
-60.00000
40
2.4
0
CIRCLE
8
center_turbine_truck_pivots
10
42.00000
20
-60.00000
40
2.4
0
CIRCLE
8
center_turbine_truck_pivots
10
124.00000
20
-60.00000
40
2.4
0
CIRCLE
8
center_turbine_screw_pilots
10
-158.00000
20
-60.00000
40
0.85
0
CIRCLE
8
center_turbine_screw_pilots
10
158.00000
20
-60.00000
40
0.85
0
CIRCLE
8
center_turbine_screw_pilots
10
-140.00000
20
-60.00000
40
0.85
0
CIRCLE
8
center_turbine_screw_pilots
10
140.00000
20
-60.00000
40
0.85
0
LWPOLYLINE
8
coal_tender
90
4
70
1
10
-97.00000
20
44.50000
10
97.00000
20
44.50000
10
97.00000
20
75.50000
10
-97.00000
20
75.50000
0
CIRCLE
8
coal_tender_truck_pivots
10
-68.00000
20
60.00000
40
2.4
0
CIRCLE
8
coal_tender_truck_pivots
10
20.00000
20
60.00000
40
2.4
0
CIRCLE
8
coal_tender_truck_pivots
10
70.00000
20
60.00000
40
2.4
0
CIRCLE
8
coal_tender_screw_pilots
10
-89.00000
20
60.00000
40
0.85
0
CIRCLE
8
coal_tender_screw_pilots
10
89.00000
20
60.00000
40
0.85
0
CIRCLE
8
coal_tender_screw_pilots
10
-71.00000
20
60.00000
40
0.85
0
CIRCLE
8
coal_tender_screw_pilots
10
71.00000
20
60.00000
40
0.85
0
ENDSEC
0
EOF
