solid a_control_right_ballast_box
  facet normal 0.00000 0.00000 1.00000
    outer loop
      vertex -21.00000 -4.00000 0.00000
      vertex 21.00000 -4.00000 0.00000
      vertex 21.00000 4.00000 0.00000
    endloop
  endfacet
  facet normal 0.00000 0.00000 1.00000
    outer loop
      vertex -21.00000 -4.00000 0.00000
      vertex 21.00000 4.00000 0.00000
      vertex -21.00000 4.00000 0.00000
    endloop
  endfacet
  facet normal 0.00000 0.00000 -1.00000
    outer loop
      vertex -21.00000 -4.00000 1.60000
      vertex -21.00000 4.00000 1.60000
      vertex 21.00000 4.00000 1.60000
    endloop
  endfacet
  facet normal 0.00000 0.00000 -1.00000
    outer loop
      vertex -21.00000 -4.00000 1.60000
      vertex 21.00000 4.00000 1.60000
      vertex 21.00000 -4.00000 1.60000
    endloop
  endfacet
  facet normal 0.00000 1.00000 0.00000
    outer loop
      vertex -21.00000 -4.00000 0.00000
      vertex -21.00000 -4.00000 1.60000
      vertex 21.00000 -4.00000 1.60000
    endloop
  endfacet
  facet normal 0.00000 1.00000 0.00000
    outer loop
      vertex -21.00000 -4.00000 0.00000
      vertex 21.00000 -4.00000 1.60000
      vertex 21.00000 -4.00000 0.00000
    endloop
  endfacet
  facet normal -1.00000 0.00000 0.00000
    outer loop
      vertex 21.00000 -4.00000 0.00000
      vertex 21.00000 -4.00000 1.60000
      vertex 21.00000 4.00000 1.60000
    endloop
  endfacet
  facet normal -1.00000 0.00000 0.00000
    outer loop
      vertex 21.00000 -4.00000 0.00000
      vertex 21.00000 4.00000 1.60000
      vertex 21.00000 4.00000 0.00000
    endloop
  endfacet
  facet normal 0.00000 -1.00000 0.00000
    outer loop
      vertex 21.00000 4.00000 0.00000
      vertex 21.00000 4.00000 1.60000
      vertex -21.00000 4.00000 1.60000
    endloop
  endfacet
  facet normal 0.00000 -1.00000 0.00000
    outer loop
      vertex 21.00000 4.00000 0.00000
      vertex -21.00000 4.00000 1.60000
      vertex -21.00000 4.00000 0.00000
    endloop
  endfacet
  facet normal 1.00000 0.00000 0.00000
    outer loop
      vertex -21.00000 4.00000 0.00000
      vertex -21.00000 4.00000 1.60000
      vertex -21.00000 -4.00000 1.60000
    endloop
  endfacet
  facet normal 1.00000 0.00000 0.00000
    outer loop
      vertex -21.00000 4.00000 0.00000
      vertex -21.00000 -4.00000 1.60000
      vertex -21.00000 -4.00000 0.00000
    endloop
  endfacet
  facet normal 0.00000 0.00000 1.00000
    outer loop
      vertex -21.00000 -4.20000 0.80000
      vertex 21.00000 -4.20000 0.80000
      vertex 21.00000 -3.40000 0.80000
    endloop
  endfacet
  facet normal 0.00000 0.00000 1.00000
    outer loop
      vertex -21.00000 -4.20000 0.80000
      vertex 21.00000 -3.40000 0.80000
      vertex -21.00000 -3.40000 0.80000
    endloop
  endfacet
  facet normal 0.00000 0.00000 -1.00000
    outer loop
      vertex -21.00000 -4.20000 7.20000
      vertex -21.00000 -3.40000 7.20000
      vertex 21.00000 -3.40000 7.20000
    endloop
  endfacet
  facet normal 0.00000 0.00000 -1.00000
    outer loop
      vertex -21.00000 -4.20000 7.20000
      vertex 21.00000 -3.40000 7.20000
      vertex 21.00000 -4.20000 7.20000
    endloop
  endfacet
  facet normal 0.00000 1.00000 0.00000
    outer loop
      vertex -21.00000 -4.20000 0.80000
      vertex -21.00000 -4.20000 7.20000
      vertex 21.00000 -4.20000 7.20000
    endloop
  endfacet
  facet normal 0.00000 1.00000 0.00000
    outer loop
      vertex -21.00000 -4.20000 0.80000
      vertex 21.00000 -4.20000 7.20000
      vertex 21.00000 -4.20000 0.80000
    endloop
  endfacet
  facet normal -1.00000 0.00000 0.00000
    outer loop
      vertex 21.00000 -4.20000 0.80000
      vertex 21.00000 -4.20000 7.20000
      vertex 21.00000 -3.40000 7.20000
    endloop
  endfacet
  facet normal -1.00000 0.00000 0.00000
    outer loop
      vertex 21.00000 -4.20000 0.80000
      vertex 21.00000 -3.40000 7.20000
      vertex 21.00000 -3.40000 0.80000
    endloop
  endfacet
  facet normal 0.00000 -1.00000 0.00000
    outer loop
      vertex 21.00000 -3.40000 0.80000
      vertex 21.00000 -3.40000 7.20000
      vertex -21.00000 -3.40000 7.20000
    endloop
  endfacet
  facet normal 0.00000 -1.00000 0.00000
    outer loop
      vertex 21.00000 -3.40000 0.80000
      vertex -21.00000 -3.40000 7.20000
      vertex -21.00000 -3.40000 0.80000
    endloop
  endfacet
  facet normal 1.00000 0.00000 0.00000
    outer loop
      vertex -21.00000 -3.40000 0.80000
      vertex -21.00000 -3.40000 7.20000
      vertex -21.00000 -4.20000 7.20000
    endloop
  endfacet
  facet normal 1.00000 0.00000 0.00000
    outer loop
      vertex -21.00000 -3.40000 0.80000
      vertex -21.00000 -4.20000 7.20000
      vertex -21.00000 -4.20000 0.80000
    endloop
  endfacet
  facet normal 0.00000 0.00000 1.00000
    outer loop
      vertex -21.00000 3.40000 0.80000
      vertex 21.00000 3.40000 0.80000
      vertex 21.00000 4.20000 0.80000
    endloop
  endfacet
  facet normal 0.00000 0.00000 1.00000
    outer loop
      vertex -21.00000 3.40000 0.80000
      vertex 21.00000 4.20000 0.80000
      vertex -21.00000 4.20000 0.80000
    endloop
  endfacet
  facet normal 0.00000 0.00000 -1.00000
    outer loop
      vertex -21.00000 3.40000 7.20000
      vertex -21.00000 4.20000 7.20000
      vertex 21.00000 4.20000 7.20000
    endloop
  endfacet
  facet normal 0.00000 0.00000 -1.00000
    outer loop
      vertex -21.00000 3.40000 7.20000
      vertex 21.00000 4.20000 7.20000
      vertex 21.00000 3.40000 7.20000
    endloop
  endfacet
  facet normal 0.00000 1.00000 0.00000
    outer loop
      vertex -21.00000 3.40000 0.80000
      vertex -21.00000 3.40000 7.20000
      vertex 21.00000 3.40000 7.20000
    endloop
  endfacet
  facet normal 0.00000 1.00000 0.00000
    outer loop
      vertex -21.00000 3.40000 0.80000
      vertex 21.00000 3.40000 7.20000
      vertex 21.00000 3.40000 0.80000
    endloop
  endfacet
  facet normal -1.00000 0.00000 0.00000
    outer loop
      vertex 21.00000 3.40000 0.80000
      vertex 21.00000 3.40000 7.20000
      vertex 21.00000 4.20000 7.20000
    endloop
  endfacet
  facet normal -1.00000 0.00000 0.00000
    outer loop
      vertex 21.00000 3.40000 0.80000
      vertex 21.00000 4.20000 7.20000
      vertex 21.00000 4.20000 0.80000
    endloop
  endfacet
  facet normal 0.00000 -1.00000 0.00000
    outer loop
      vertex 21.00000 4.20000 0.80000
      vertex 21.00000 4.20000 7.20000
      vertex -21.00000 4.20000 7.20000
    endloop
  endfacet
  facet normal 0.00000 -1.00000 0.00000
    outer loop
      vertex 21.00000 4.20000 0.80000
      vertex -21.00000 4.20000 7.20000
      vertex -21.00000 4.20000 0.80000
    endloop
  endfacet
  facet normal 1.00000 0.00000 0.00000
    outer loop
      vertex -21.00000 4.20000 0.80000
      vertex -21.00000 4.20000 7.20000
      vertex -21.00000 3.40000 7.20000
    endloop
  endfacet
  facet normal 1.00000 0.00000 0.00000
    outer loop
      vertex -21.00000 4.20000 0.80000
      vertex -21.00000 3.40000 7.20000
      vertex -21.00000 3.40000 0.80000
    endloop
  endfacet
  facet normal 0.00000 0.00000 1.00000
    outer loop
      vertex -21.00000 -4.00000 0.80000
      vertex -20.20000 -4.00000 0.80000
      vertex -20.20000 4.00000 0.80000
    endloop
  endfacet
  facet normal 0.00000 0.00000 1.00000
    outer loop
      vertex -21.00000 -4.00000 0.80000
      vertex -20.20000 4.00000 0.80000
      vertex -21.00000 4.00000 0.80000
    endloop
  endfacet
  facet normal 0.00000 0.00000 -1.00000
    outer loop
      vertex -21.00000 -4.00000 7.20000
      vertex -21.00000 4.00000 7.20000
      vertex -20.20000 4.00000 7.20000
    endloop
  endfacet
  facet normal 0.00000 0.00000 -1.00000
    outer loop
      vertex -21.00000 -4.00000 7.20000
      vertex -20.20000 4.00000 7.20000
      vertex -20.20000 -4.00000 7.20000
    endloop
  endfacet
  facet normal 0.00000 1.00000 0.00000
    outer loop
      vertex -21.00000 -4.00000 0.80000
      vertex -21.00000 -4.00000 7.20000
      vertex -20.20000 -4.00000 7.20000
    endloop
  endfacet
  facet normal 0.00000 1.00000 0.00000
    outer loop
      vertex -21.00000 -4.00000 0.80000
      vertex -20.20000 -4.00000 7.20000
      vertex -20.20000 -4.00000 0.80000
    endloop
  endfacet
  facet normal -1.00000 0.00000 0.00000
    outer loop
      vertex -20.20000 -4.00000 0.80000
      vertex -20.20000 -4.00000 7.20000
      vertex -20.20000 4.00000 7.20000
    endloop
  endfacet
  facet normal -1.00000 0.00000 0.00000
    outer loop
      vertex -20.20000 -4.00000 0.80000
      vertex -20.20000 4.00000 7.20000
      vertex -20.20000 4.00000 0.80000
    endloop
  endfacet
  facet normal 0.00000 -1.00000 0.00000
    outer loop
      vertex -20.20000 4.00000 0.80000
      vertex -20.20000 4.00000 7.20000
      vertex -21.00000 4.00000 7.20000
    endloop
  endfacet
  facet normal 0.00000 -1.00000 0.00000
    outer loop
      vertex -20.20000 4.00000 0.80000
      vertex -21.00000 4.00000 7.20000
      vertex -21.00000 4.00000 0.80000
    endloop
  endfacet
  facet normal 1.00000 0.00000 0.00000
    outer loop
      vertex -21.00000 4.00000 0.80000
      vertex -21.00000 4.00000 7.20000
      vertex -21.00000 -4.00000 7.20000
    endloop
  endfacet
  facet normal 1.00000 0.00000 0.00000
    outer loop
      vertex -21.00000 4.00000 0.80000
      vertex -21.00000 -4.00000 7.20000
      vertex -21.00000 -4.00000 0.80000
    endloop
  endfacet
  facet normal 0.00000 0.00000 1.00000
    outer loop
      vertex 20.20000 -4.00000 0.80000
      vertex 21.00000 -4.00000 0.80000
      vertex 21.00000 4.00000 0.80000
    endloop
  endfacet
  facet normal 0.00000 0.00000 1.00000
    outer loop
      vertex 20.20000 -4.00000 0.80000
      vertex 21.00000 4.00000 0.80000
      vertex 20.20000 4.00000 0.80000
    endloop
  endfacet
  facet normal 0.00000 0.00000 -1.00000
    outer loop
      vertex 20.20000 -4.00000 7.20000
      vertex 20.20000 4.00000 7.20000
      vertex 21.00000 4.00000 7.20000
    endloop
  endfacet
  facet normal 0.00000 0.00000 -1.00000
    outer loop
      vertex 20.20000 -4.00000 7.20000
      vertex 21.00000 4.00000 7.20000
      vertex 21.00000 -4.00000 7.20000
    endloop
  endfacet
  facet normal 0.00000 1.00000 0.00000
    outer loop
      vertex 20.20000 -4.00000 0.80000
      vertex 20.20000 -4.00000 7.20000
      vertex 21.00000 -4.00000 7.20000
    endloop
  endfacet
  facet normal 0.00000 1.00000 0.00000
    outer loop
      vertex 20.20000 -4.00000 0.80000
      vertex 21.00000 -4.00000 7.20000
      vertex 21.00000 -4.00000 0.80000
    endloop
  endfacet
  facet normal -1.00000 0.00000 0.00000
    outer loop
      vertex 21.00000 -4.00000 0.80000
      vertex 21.00000 -4.00000 7.20000
      vertex 21.00000 4.00000 7.20000
    endloop
  endfacet
  facet normal -1.00000 0.00000 0.00000
    outer loop
      vertex 21.00000 -4.00000 0.80000
      vertex 21.00000 4.00000 7.20000
      vertex 21.00000 4.00000 0.80000
    endloop
  endfacet
  facet normal 0.00000 -1.00000 0.00000
    outer loop
      vertex 21.00000 4.00000 0.80000
      vertex 21.00000 4.00000 7.20000
      vertex 20.20000 4.00000 7.20000
    endloop
  endfacet
  facet normal 0.00000 -1.00000 0.00000
    outer loop
      vertex 21.00000 4.00000 0.80000
      vertex 20.20000 4.00000 7.20000
      vertex 20.20000 4.00000 0.80000
    endloop
  endfacet
  facet normal 1.00000 0.00000 0.00000
    outer loop
      vertex 20.20000 4.00000 0.80000
      vertex 20.20000 4.00000 7.20000
      vertex 20.20000 -4.00000 7.20000
    endloop
  endfacet
  facet normal 1.00000 0.00000 0.00000
    outer loop
      vertex 20.20000 4.00000 0.80000
      vertex 20.20000 -4.00000 7.20000
      vertex 20.20000 -4.00000 0.80000
    endloop
  endfacet
endsolid a_control_right_ballast_box
