solid center_turbine_pickup_wiper_mounts
  facet normal 0.00000 0.00000 1.00000
    outer loop
      vertex -27.00000 -9.62500 0.00000
      vertex -9.00000 -9.62500 0.00000
      vertex -9.00000 -6.62500 0.00000
    endloop
  endfacet
  facet normal 0.00000 0.00000 1.00000
    outer loop
      vertex -27.00000 -9.62500 0.00000
      vertex -9.00000 -6.62500 0.00000
      vertex -27.00000 -6.62500 0.00000
    endloop
  endfacet
  facet normal 0.00000 0.00000 -1.00000
    outer loop
      vertex -27.00000 -9.62500 1.40000
      vertex -27.00000 -6.62500 1.40000
      vertex -9.00000 -6.62500 1.40000
    endloop
  endfacet
  facet normal 0.00000 0.00000 -1.00000
    outer loop
      vertex -27.00000 -9.62500 1.40000
      vertex -9.00000 -6.62500 1.40000
      vertex -9.00000 -9.62500 1.40000
    endloop
  endfacet
  facet normal 0.00000 1.00000 0.00000
    outer loop
      vertex -27.00000 -9.62500 0.00000
      vertex -27.00000 -9.62500 1.40000
      vertex -9.00000 -9.62500 1.40000
    endloop
  endfacet
  facet normal 0.00000 1.00000 0.00000
    outer loop
      vertex -27.00000 -9.62500 0.00000
      vertex -9.00000 -9.62500 1.40000
      vertex -9.00000 -9.62500 0.00000
    endloop
  endfacet
  facet normal -1.00000 0.00000 0.00000
    outer loop
      vertex -9.00000 -9.62500 0.00000
      vertex -9.00000 -9.62500 1.40000
      vertex -9.00000 -6.62500 1.40000
    endloop
  endfacet
  facet normal -1.00000 0.00000 0.00000
    outer loop
      vertex -9.00000 -9.62500 0.00000
      vertex -9.00000 -6.62500 1.40000
      vertex -9.00000 -6.62500 0.00000
    endloop
  endfacet
  facet normal 0.00000 -1.00000 0.00000
    outer loop
      vertex -9.00000 -6.62500 0.00000
      vertex -9.00000 -6.62500 1.40000
      vertex -27.00000 -6.62500 1.40000
    endloop
  endfacet
  facet normal 0.00000 -1.00000 0.00000
    outer loop
      vertex -9.00000 -6.62500 0.00000
      vertex -27.00000 -6.62500 1.40000
      vertex -27.00000 -6.62500 0.00000
    endloop
  endfacet
  facet normal 1.00000 0.00000 0.00000
    outer loop
      vertex -27.00000 -6.62500 0.00000
      vertex -27.00000 -6.62500 1.40000
      vertex -27.00000 -9.62500 1.40000
    endloop
  endfacet
  facet normal 1.00000 0.00000 0.00000
    outer loop
      vertex -27.00000 -6.62500 0.00000
      vertex -27.00000 -9.62500 1.40000
      vertex -27.00000 -9.62500 0.00000
    endloop
  endfacet
  facet normal 0.00000 0.00000 1.00000
    outer loop
      vertex -27.00000 6.62500 0.00000
      vertex -9.00000 6.62500 0.00000
      vertex -9.00000 9.62500 0.00000
    endloop
  endfacet
  facet normal 0.00000 0.00000 1.00000
    outer loop
      vertex -27.00000 6.62500 0.00000
      vertex -9.00000 9.62500 0.00000
      vertex -27.00000 9.62500 0.00000
    endloop
  endfacet
  facet normal 0.00000 0.00000 -1.00000
    outer loop
      vertex -27.00000 6.62500 1.40000
      vertex -27.00000 9.62500 1.40000
      vertex -9.00000 9.62500 1.40000
    endloop
  endfacet
  facet normal 0.00000 0.00000 -1.00000
    outer loop
      vertex -27.00000 6.62500 1.40000
      vertex -9.00000 9.62500 1.40000
      vertex -9.00000 6.62500 1.40000
    endloop
  endfacet
  facet normal 0.00000 1.00000 0.00000
    outer loop
      vertex -27.00000 6.62500 0.00000
      vertex -27.00000 6.62500 1.40000
      vertex -9.00000 6.62500 1.40000
    endloop
  endfacet
  facet normal 0.00000 1.00000 0.00000
    outer loop
      vertex -27.00000 6.62500 0.00000
      vertex -9.00000 6.62500 1.40000
      vertex -9.00000 6.62500 0.00000
    endloop
  endfacet
  facet normal -1.00000 0.00000 0.00000
    outer loop
      vertex -9.00000 6.62500 0.00000
      vertex -9.00000 6.62500 1.40000
      vertex -9.00000 9.62500 1.40000
    endloop
  endfacet
  facet normal -1.00000 0.00000 0.00000
    outer loop
      vertex -9.00000 6.62500 0.00000
      vertex -9.00000 9.62500 1.40000
      vertex -9.00000 9.62500 0.00000
    endloop
  endfacet
  facet normal 0.00000 -1.00000 0.00000
    outer loop
      vertex -9.00000 9.62500 0.00000
      vertex -9.00000 9.62500 1.40000
      vertex -27.00000 9.62500 1.40000
    endloop
  endfacet
  facet normal 0.00000 -1.00000 0.00000
    outer loop
      vertex -9.00000 9.62500 0.00000
      vertex -27.00000 9.62500 1.40000
      vertex -27.00000 9.62500 0.00000
    endloop
  endfacet
  facet normal 1.00000 0.00000 0.00000
    outer loop
      vertex -27.00000 9.62500 0.00000
      vertex -27.00000 9.62500 1.40000
      vertex -27.00000 6.62500 1.40000
    endloop
  endfacet
  facet normal 1.00000 0.00000 0.00000
    outer loop
      vertex -27.00000 9.62500 0.00000
      vertex -27.00000 6.62500 1.40000
      vertex -27.00000 6.62500 0.00000
    endloop
  endfacet
  facet normal 0.00000 0.00000 1.00000
    outer loop
      vertex -19.00000 -11.12500 1.10000
      vertex -17.00000 -11.12500 1.10000
      vertex -17.00000 -5.12500 1.10000
    endloop
  endfacet
  facet normal 0.00000 0.00000 1.00000
    outer loop
      vertex -19.00000 -11.12500 1.10000
      vertex -17.00000 -5.12500 1.10000
      vertex -19.00000 -5.12500 1.10000
    endloop
  endfacet
  facet normal 0.00000 0.00000 -1.00000
    outer loop
      vertex -19.00000 -11.12500 3.10000
      vertex -19.00000 -5.12500 3.10000
      vertex -17.00000 -5.12500 3.10000
    endloop
  endfacet
  facet normal 0.00000 0.00000 -1.00000
    outer loop
      vertex -19.00000 -11.12500 3.10000
      vertex -17.00000 -5.12500 3.10000
      vertex -17.00000 -11.12500 3.10000
    endloop
  endfacet
  facet normal 0.00000 1.00000 0.00000
    outer loop
      vertex -19.00000 -11.12500 1.10000
      vertex -19.00000 -11.12500 3.10000
      vertex -17.00000 -11.12500 3.10000
    endloop
  endfacet
  facet normal 0.00000 1.00000 0.00000
    outer loop
      vertex -19.00000 -11.12500 1.10000
      vertex -17.00000 -11.12500 3.10000
      vertex -17.00000 -11.12500 1.10000
    endloop
  endfacet
  facet normal -1.00000 0.00000 0.00000
    outer loop
      vertex -17.00000 -11.12500 1.10000
      vertex -17.00000 -11.12500 3.10000
      vertex -17.00000 -5.12500 3.10000
    endloop
  endfacet
  facet normal -1.00000 0.00000 0.00000
    outer loop
      vertex -17.00000 -11.12500 1.10000
      vertex -17.00000 -5.12500 3.10000
      vertex -17.00000 -5.12500 1.10000
    endloop
  endfacet
  facet normal 0.00000 -1.00000 0.00000
    outer loop
      vertex -17.00000 -5.12500 1.10000
      vertex -17.00000 -5.12500 3.10000
      vertex -19.00000 -5.12500 3.10000
    endloop
  endfacet
  facet normal 0.00000 -1.00000 0.00000
    outer loop
      vertex -17.00000 -5.12500 1.10000
      vertex -19.00000 -5.12500 3.10000
      vertex -19.00000 -5.12500 1.10000
    endloop
  endfacet
  facet normal 1.00000 0.00000 0.00000
    outer loop
      vertex -19.00000 -5.12500 1.10000
      vertex -19.00000 -5.12500 3.10000
      vertex -19.00000 -11.12500 3.10000
    endloop
  endfacet
  facet normal 1.00000 0.00000 0.00000
    outer loop
      vertex -19.00000 -5.12500 1.10000
      vertex -19.00000 -11.12500 3.10000
      vertex -19.00000 -11.12500 1.10000
    endloop
  endfacet
  facet normal 0.00000 0.00000 1.00000
    outer loop
      vertex -19.00000 5.12500 1.10000
      vertex -17.00000 5.12500 1.10000
      vertex -17.00000 11.12500 1.10000
    endloop
  endfacet
  facet normal 0.00000 0.00000 1.00000
    outer loop
      vertex -19.00000 5.12500 1.10000
      vertex -17.00000 11.12500 1.10000
      vertex -19.00000 11.12500 1.10000
    endloop
  endfacet
  facet normal 0.00000 0.00000 -1.00000
    outer loop
      vertex -19.00000 5.12500 3.10000
      vertex -19.00000 11.12500 3.10000
      vertex -17.00000 11.12500 3.10000
    endloop
  endfacet
  facet normal 0.00000 0.00000 -1.00000
    outer loop
      vertex -19.00000 5.12500 3.10000
      vertex -17.00000 11.12500 3.10000
      vertex -17.00000 5.12500 3.10000
    endloop
  endfacet
  facet normal 0.00000 1.00000 0.00000
    outer loop
      vertex -19.00000 5.12500 1.10000
      vertex -19.00000 5.12500 3.10000
      vertex -17.00000 5.12500 3.10000
    endloop
  endfacet
  facet normal 0.00000 1.00000 0.00000
    outer loop
      vertex -19.00000 5.12500 1.10000
      vertex -17.00000 5.12500 3.10000
      vertex -17.00000 5.12500 1.10000
    endloop
  endfacet
  facet normal -1.00000 0.00000 0.00000
    outer loop
      vertex -17.00000 5.12500 1.10000
      vertex -17.00000 5.12500 3.10000
      vertex -17.00000 11.12500 3.10000
    endloop
  endfacet
  facet normal -1.00000 0.00000 0.00000
    outer loop
      vertex -17.00000 5.12500 1.10000
      vertex -17.00000 11.12500 3.10000
      vertex -17.00000 11.12500 1.10000
    endloop
  endfacet
  facet normal 0.00000 -1.00000 0.00000
    outer loop
      vertex -17.00000 11.12500 1.10000
      vertex -17.00000 11.12500 3.10000
      vertex -19.00000 11.12500 3.10000
    endloop
  endfacet
  facet normal 0.00000 -1.00000 0.00000
    outer loop
      vertex -17.00000 11.12500 1.10000
      vertex -19.00000 11.12500 3.10000
      vertex -19.00000 11.12500 1.10000
    endloop
  endfacet
  facet normal 1.00000 0.00000 0.00000
    outer loop
      vertex -19.00000 11.12500 1.10000
      vertex -19.00000 11.12500 3.10000
      vertex -19.00000 5.12500 3.10000
    endloop
  endfacet
  facet normal 1.00000 0.00000 0.00000
    outer loop
      vertex -19.00000 11.12500 1.10000
      vertex -19.00000 5.12500 3.10000
      vertex -19.00000 5.12500 1.10000
    endloop
  endfacet
  facet normal 0.00000 0.00000 1.00000
    outer loop
      vertex 9.00000 -9.62500 0.00000
      vertex 27.00000 -9.62500 0.00000
      vertex 27.00000 -6.62500 0.00000
    endloop
  endfacet
  facet normal 0.00000 0.00000 1.00000
    outer loop
      vertex 9.00000 -9.62500 0.00000
      vertex 27.00000 -6.62500 0.00000
      vertex 9.00000 -6.62500 0.00000
    endloop
  endfacet
  facet normal 0.00000 0.00000 -1.00000
    outer loop
      vertex 9.00000 -9.62500 1.40000
      vertex 9.00000 -6.62500 1.40000
      vertex 27.00000 -6.62500 1.40000
    endloop
  endfacet
  facet normal 0.00000 0.00000 -1.00000
    outer loop
      vertex 9.00000 -9.62500 1.40000
      vertex 27.00000 -6.62500 1.40000
      vertex 27.00000 -9.62500 1.40000
    endloop
  endfacet
  facet normal 0.00000 1.00000 0.00000
    outer loop
      vertex 9.00000 -9.62500 0.00000
      vertex 9.00000 -9.62500 1.40000
      vertex 27.00000 -9.62500 1.40000
    endloop
  endfacet
  facet normal 0.00000 1.00000 0.00000
    outer loop
      vertex 9.00000 -9.62500 0.00000
      vertex 27.00000 -9.62500 1.40000
      vertex 27.00000 -9.62500 0.00000
    endloop
  endfacet
  facet normal -1.00000 0.00000 0.00000
    outer loop
      vertex 27.00000 -9.62500 0.00000
      vertex 27.00000 -9.62500 1.40000
      vertex 27.00000 -6.62500 1.40000
    endloop
  endfacet
  facet normal -1.00000 0.00000 0.00000
    outer loop
      vertex 27.00000 -9.62500 0.00000
      vertex 27.00000 -6.62500 1.40000
      vertex 27.00000 -6.62500 0.00000
    endloop
  endfacet
  facet normal 0.00000 -1.00000 0.00000
    outer loop
      vertex 27.00000 -6.62500 0.00000
      vertex 27.00000 -6.62500 1.40000
      vertex 9.00000 -6.62500 1.40000
    endloop
  endfacet
  facet normal 0.00000 -1.00000 0.00000
    outer loop
      vertex 27.00000 -6.62500 0.00000
      vertex 9.00000 -6.62500 1.40000
      vertex 9.00000 -6.62500 0.00000
    endloop
  endfacet
  facet normal 1.00000 0.00000 0.00000
    outer loop
      vertex 9.00000 -6.62500 0.00000
      vertex 9.00000 -6.62500 1.40000
      vertex 9.00000 -9.62500 1.40000
    endloop
  endfacet
  facet normal 1.00000 0.00000 0.00000
    outer loop
      vertex 9.00000 -6.62500 0.00000
      vertex 9.00000 -9.62500 1.40000
      vertex 9.00000 -9.62500 0.00000
    endloop
  endfacet
  facet normal 0.00000 0.00000 1.00000
    outer loop
      vertex 9.00000 6.62500 0.00000
      vertex 27.00000 6.62500 0.00000
      vertex 27.00000 9.62500 0.00000
    endloop
  endfacet
  facet normal 0.00000 0.00000 1.00000
    outer loop
      vertex 9.00000 6.62500 0.00000
      vertex 27.00000 9.62500 0.00000
      vertex 9.00000 9.62500 0.00000
    endloop
  endfacet
  facet normal 0.00000 0.00000 -1.00000
    outer loop
      vertex 9.00000 6.62500 1.40000
      vertex 9.00000 9.62500 1.40000
      vertex 27.00000 9.62500 1.40000
    endloop
  endfacet
  facet normal 0.00000 0.00000 -1.00000
    outer loop
      vertex 9.00000 6.62500 1.40000
      vertex 27.00000 9.62500 1.40000
      vertex 27.00000 6.62500 1.40000
    endloop
  endfacet
  facet normal 0.00000 1.00000 0.00000
    outer loop
      vertex 9.00000 6.62500 0.00000
      vertex 9.00000 6.62500 1.40000
      vertex 27.00000 6.62500 1.40000
    endloop
  endfacet
  facet normal 0.00000 1.00000 0.00000
    outer loop
      vertex 9.00000 6.62500 0.00000
      vertex 27.00000 6.62500 1.40000
      vertex 27.00000 6.62500 0.00000
    endloop
  endfacet
  facet normal -1.00000 0.00000 0.00000
    outer loop
      vertex 27.00000 6.62500 0.00000
      vertex 27.00000 6.62500 1.40000
      vertex 27.00000 9.62500 1.40000
    endloop
  endfacet
  facet normal -1.00000 0.00000 0.00000
    outer loop
      vertex 27.00000 6.62500 0.00000
      vertex 27.00000 9.62500 1.40000
      vertex 27.00000 9.62500 0.00000
    endloop
  endfacet
  facet normal 0.00000 -1.00000 0.00000
    outer loop
      vertex 27.00000 9.62500 0.00000
      vertex 27.00000 9.62500 1.40000
      vertex 9.00000 9.62500 1.40000
    endloop
  endfacet
  facet normal 0.00000 -1.00000 0.00000
    outer loop
      vertex 27.00000 9.62500 0.00000
      vertex 9.00000 9.62500 1.40000
      vertex 9.00000 9.62500 0.00000
    endloop
  endfacet
  facet normal 1.00000 0.00000 0.00000
    outer loop
      vertex 9.00000 9.62500 0.00000
      vertex 9.00000 9.62500 1.40000
      vertex 9.00000 6.62500 1.40000
    endloop
  endfacet
  facet normal 1.00000 0.00000 0.00000
    outer loop
      vertex 9.00000 9.62500 0.00000
      vertex 9.00000 6.62500 1.40000
      vertex 9.00000 6.62500 0.00000
    endloop
  endfacet
  facet normal 0.00000 0.00000 1.00000
    outer loop
      vertex 17.00000 -11.12500 1.10000
      vertex 19.00000 -11.12500 1.10000
      vertex 19.00000 -5.12500 1.10000
    endloop
  endfacet
  facet normal 0.00000 0.00000 1.00000
    outer loop
      vertex 17.00000 -11.12500 1.10000
      vertex 19.00000 -5.12500 1.10000
      vertex 17.00000 -5.12500 1.10000
    endloop
  endfacet
  facet normal 0.00000 0.00000 -1.00000
    outer loop
      vertex 17.00000 -11.12500 3.10000
      vertex 17.00000 -5.12500 3.10000
      vertex 19.00000 -5.12500 3.10000
    endloop
  endfacet
  facet normal 0.00000 0.00000 -1.00000
    outer loop
      vertex 17.00000 -11.12500 3.10000
      vertex 19.00000 -5.12500 3.10000
      vertex 19.00000 -11.12500 3.10000
    endloop
  endfacet
  facet normal 0.00000 1.00000 0.00000
    outer loop
      vertex 17.00000 -11.12500 1.10000
      vertex 17.00000 -11.12500 3.10000
      vertex 19.00000 -11.12500 3.10000
    endloop
  endfacet
  facet normal 0.00000 1.00000 0.00000
    outer loop
      vertex 17.00000 -11.12500 1.10000
      vertex 19.00000 -11.12500 3.10000
      vertex 19.00000 -11.12500 1.10000
    endloop
  endfacet
  facet normal -1.00000 0.00000 0.00000
    outer loop
      vertex 19.00000 -11.12500 1.10000
      vertex 19.00000 -11.12500 3.10000
      vertex 19.00000 -5.12500 3.10000
    endloop
  endfacet
  facet normal -1.00000 0.00000 0.00000
    outer loop
      vertex 19.00000 -11.12500 1.10000
      vertex 19.00000 -5.12500 3.10000
      vertex 19.00000 -5.12500 1.10000
    endloop
  endfacet
  facet normal 0.00000 -1.00000 0.00000
    outer loop
      vertex 19.00000 -5.12500 1.10000
      vertex 19.00000 -5.12500 3.10000
      vertex 17.00000 -5.12500 3.10000
    endloop
  endfacet
  facet normal 0.00000 -1.00000 0.00000
    outer loop
      vertex 19.00000 -5.12500 1.10000
      vertex 17.00000 -5.12500 3.10000
      vertex 17.00000 -5.12500 1.10000
    endloop
  endfacet
  facet normal 1.00000 0.00000 0.00000
    outer loop
      vertex 17.00000 -5.12500 1.10000
      vertex 17.00000 -5.12500 3.10000
      vertex 17.00000 -11.12500 3.10000
    endloop
  endfacet
  facet normal 1.00000 0.00000 0.00000
    outer loop
      vertex 17.00000 -5.12500 1.10000
      vertex 17.00000 -11.12500 3.10000
      vertex 17.00000 -11.12500 1.10000
    endloop
  endfacet
  facet normal 0.00000 0.00000 1.00000
    outer loop
      vertex 17.00000 5.12500 1.10000
      vertex 19.00000 5.12500 1.10000
      vertex 19.00000 11.12500 1.10000
    endloop
  endfacet
  facet normal 0.00000 0.00000 1.00000
    outer loop
      vertex 17.00000 5.12500 1.10000
      vertex 19.00000 11.12500 1.10000
      vertex 17.00000 11.12500 1.10000
    endloop
  endfacet
  facet normal 0.00000 0.00000 -1.00000
    outer loop
      vertex 17.00000 5.12500 3.10000
      vertex 17.00000 11.12500 3.10000
      vertex 19.00000 11.12500 3.10000
    endloop
  endfacet
  facet normal 0.00000 0.00000 -1.00000
    outer loop
      vertex 17.00000 5.12500 3.10000
      vertex 19.00000 11.12500 3.10000
      vertex 19.00000 5.12500 3.10000
    endloop
  endfacet
  facet normal 0.00000 1.00000 0.00000
    outer loop
      vertex 17.00000 5.12500 1.10000
      vertex 17.00000 5.12500 3.10000
      vertex 19.00000 5.12500 3.10000
    endloop
  endfacet
  facet normal 0.00000 1.00000 0.00000
    outer loop
      vertex 17.00000 5.12500 1.10000
      vertex 19.00000 5.12500 3.10000
      vertex 19.00000 5.12500 1.10000
    endloop
  endfacet
  facet normal -1.00000 0.00000 0.00000
    outer loop
      vertex 19.00000 5.12500 1.10000
      vertex 19.00000 5.12500 3.10000
      vertex 19.00000 11.12500 3.10000
    endloop
  endfacet
  facet normal -1.00000 0.00000 0.00000
    outer loop
      vertex 19.00000 5.12500 1.10000
      vertex 19.00000 11.12500 3.10000
      vertex 19.00000 11.12500 1.10000
    endloop
  endfacet
  facet normal 0.00000 -1.00000 0.00000
    outer loop
      vertex 19.00000 11.12500 1.10000
      vertex 19.00000 11.12500 3.10000
      vertex 17.00000 11.12500 3.10000
    endloop
  endfacet
  facet normal 0.00000 -1.00000 0.00000
    outer loop
      vertex 19.00000 11.12500 1.10000
      vertex 17.00000 11.12500 3.10000
      vertex 17.00000 11.12500 1.10000
    endloop
  endfacet
  facet normal 1.00000 0.00000 0.00000
    outer loop
      vertex 17.00000 11.12500 1.10000
      vertex 17.00000 11.12500 3.10000
      vertex 17.00000 5.12500 3.10000
    endloop
  endfacet
  facet normal 1.00000 0.00000 0.00000
    outer loop
      vertex 17.00000 11.12500 1.10000
      vertex 17.00000 5.12500 3.10000
      vertex 17.00000 5.12500 1.10000
    endloop
  endfacet
endsolid center_turbine_pickup_wiper_mounts
