solid coal_tender_rear_coupler_pocket
  facet normal 0.00000 0.00000 1.00000
    outer loop
      vertex -6.75000 -4.50000 0.00000
      vertex 6.75000 -4.50000 0.00000
      vertex 6.75000 4.50000 0.00000
    endloop
  endfacet
  facet normal 0.00000 0.00000 1.00000
    outer loop
      vertex -6.75000 -4.50000 0.00000
      vertex 6.75000 4.50000 0.00000
      vertex -6.75000 4.50000 0.00000
    endloop
  endfacet
  facet normal 0.00000 0.00000 -1.00000
    outer loop
      vertex -6.75000 -4.50000 3.20000
      vertex -6.75000 4.50000 3.20000
      vertex 6.75000 4.50000 3.20000
    endloop
  endfacet
  facet normal 0.00000 0.00000 -1.00000
    outer loop
      vertex -6.75000 -4.50000 3.20000
      vertex 6.75000 4.50000 3.20000
      vertex 6.75000 -4.50000 3.20000
    endloop
  endfacet
  facet normal 0.00000 1.00000 0.00000
    outer loop
      vertex -6.75000 -4.50000 0.00000
      vertex -6.75000 -4.50000 3.20000
      vertex 6.75000 -4.50000 3.20000
    endloop
  endfacet
  facet normal 0.00000 1.00000 0.00000
    outer loop
      vertex -6.75000 -4.50000 0.00000
      vertex 6.75000 -4.50000 3.20000
      vertex 6.75000 -4.50000 0.00000
    endloop
  endfacet
  facet normal -1.00000 0.00000 0.00000
    outer loop
      vertex 6.75000 -4.50000 0.00000
      vertex 6.75000 -4.50000 3.20000
      vertex 6.75000 4.50000 3.20000
    endloop
  endfacet
  facet normal -1.00000 0.00000 0.00000
    outer loop
      vertex 6.75000 -4.50000 0.00000
      vertex 6.75000 4.50000 3.20000
      vertex 6.75000 4.50000 0.00000
    endloop
  endfacet
  facet normal 0.00000 -1.00000 0.00000
    outer loop
      vertex 6.75000 4.50000 0.00000
      vertex 6.75000 4.50000 3.20000
      vertex -6.75000 4.50000 3.20000
    endloop
  endfacet
  facet normal 0.00000 -1.00000 0.00000
    outer loop
      vertex 6.75000 4.50000 0.00000
      vertex -6.75000 4.50000 3.20000
      vertex -6.75000 4.50000 0.00000
    endloop
  endfacet
  facet normal 1.00000 0.00000 0.00000
    outer loop
      vertex -6.75000 4.50000 0.00000
      vertex -6.75000 4.50000 3.20000
      vertex -6.75000 -4.50000 3.20000
    endloop
  endfacet
  facet normal 1.00000 0.00000 0.00000
    outer loop
      vertex -6.75000 4.50000 0.00000
      vertex -6.75000 -4.50000 3.20000
      vertex -6.75000 -4.50000 0.00000
    endloop
  endfacet
  facet normal 0.00000 0.00000 1.00000
    outer loop
      vertex 2.70000 -3.65000 3.00000
      vertex 6.90000 -3.65000 3.00000
      vertex 6.90000 3.65000 3.00000
    endloop
  endfacet
  facet normal 0.00000 0.00000 1.00000
    outer loop
      vertex 2.70000 -3.65000 3.00000
      vertex 6.90000 3.65000 3.00000
      vertex 2.70000 3.65000 3.00000
    endloop
  endfacet
  facet normal 0.00000 0.00000 -1.00000
    outer loop
      vertex 2.70000 -3.65000 4.20000
      vertex 2.70000 3.65000 4.20000
      vertex 6.90000 3.65000 4.20000
    endloop
  endfacet
  facet normal 0.00000 0.00000 -1.00000
    outer loop
      vertex 2.70000 -3.65000 4.20000
      vertex 6.90000 3.65000 4.20000
      vertex 6.90000 -3.65000 4.20000
    endloop
  endfacet
  facet normal 0.00000 1.00000 0.00000
    outer loop
      vertex 2.70000 -3.65000 3.00000
      vertex 2.70000 -3.65000 4.20000
      vertex 6.90000 -3.65000 4.20000
    endloop
  endfacet
  facet normal 0.00000 1.00000 0.00000
    outer loop
      vertex 2.70000 -3.65000 3.00000
      vertex 6.90000 -3.65000 4.20000
      vertex 6.90000 -3.65000 3.00000
    endloop
  endfacet
  facet normal -1.00000 0.00000 0.00000
    outer loop
      vertex 6.90000 -3.65000 3.00000
      vertex 6.90000 -3.65000 4.20000
      vertex 6.90000 3.65000 4.20000
    endloop
  endfacet
  facet normal -1.00000 0.00000 0.00000
    outer loop
      vertex 6.90000 -3.65000 3.00000
      vertex 6.90000 3.65000 4.20000
      vertex 6.90000 3.65000 3.00000
    endloop
  endfacet
  facet normal 0.00000 -1.00000 0.00000
    outer loop
      vertex 6.90000 3.65000 3.00000
      vertex 6.90000 3.65000 4.20000
      vertex 2.70000 3.65000 4.20000
    endloop
  endfacet
  facet normal 0.00000 -1.00000 0.00000
    outer loop
      vertex 6.90000 3.65000 3.00000
      vertex 2.70000 3.65000 4.20000
      vertex 2.70000 3.65000 3.00000
    endloop
  endfacet
  facet normal 1.00000 0.00000 0.00000
    outer loop
      vertex 2.70000 3.65000 3.00000
      vertex 2.70000 3.65000 4.20000
      vertex 2.70000 -3.65000 4.20000
    endloop
  endfacet
  facet normal 1.00000 0.00000 0.00000
    outer loop
      vertex 2.70000 3.65000 3.00000
      vertex 2.70000 -3.65000 4.20000
      vertex 2.70000 -3.65000 3.00000
    endloop
  endfacet
  facet normal 0.99144 0.13053 0.00000
    outer loop
      vertex 2.90000 0.00000 4.00000
      vertex 2.80118 0.75058 4.00000
      vertex 2.80118 0.75058 5.00000
    endloop
  endfacet
  facet normal 0.99144 0.13053 0.00000
    outer loop
      vertex 2.90000 0.00000 4.00000
      vertex 2.80118 0.75058 5.00000
      vertex 2.90000 0.00000 5.00000
    endloop
  endfacet
  facet normal -0.99144 -0.13053 0.00000
    outer loop
      vertex 1.06252 0.28470 4.00000
      vertex 1.10000 0.00000 4.00000
      vertex 1.10000 0.00000 5.00000
    endloop
  endfacet
  facet normal -0.99144 -0.13053 0.00000
    outer loop
      vertex 1.06252 0.28470 4.00000
      vertex 1.10000 0.00000 5.00000
      vertex 1.06252 0.28470 5.00000
    endloop
  endfacet
  facet normal 0.00000 0.00000 1.00000
    outer loop
      vertex 2.90000 0.00000 5.00000
      vertex 2.80118 0.75058 5.00000
      vertex 1.06252 0.28470 5.00000
    endloop
  endfacet
  facet normal 0.00000 0.00000 1.00000
    outer loop
      vertex 2.90000 0.00000 5.00000
      vertex 1.06252 0.28470 5.00000
      vertex 1.10000 0.00000 5.00000
    endloop
  endfacet
  facet normal 0.00000 0.00000 -1.00000
    outer loop
      vertex 2.80118 0.75058 4.00000
      vertex 2.90000 0.00000 4.00000
      vertex 1.10000 0.00000 4.00000
    endloop
  endfacet
  facet normal 0.00000 0.00000 -1.00000
    outer loop
      vertex 2.80118 0.75058 4.00000
      vertex 1.10000 0.00000 4.00000
      vertex 1.06252 0.28470 4.00000
    endloop
  endfacet
  facet normal 0.92388 0.38268 0.00000
    outer loop
      vertex 2.80118 0.75058 4.00000
      vertex 2.51147 1.45000 4.00000
      vertex 2.51147 1.45000 5.00000
    endloop
  endfacet
  facet normal 0.92388 0.38268 0.00000
    outer loop
      vertex 2.80118 0.75058 4.00000
      vertex 2.51147 1.45000 5.00000
      vertex 2.80118 0.75058 5.00000
    endloop
  endfacet
  facet normal -0.92388 -0.38268 0.00000
    outer loop
      vertex 0.95263 0.55000 4.00000
      vertex 1.06252 0.28470 4.00000
      vertex 1.06252 0.28470 5.00000
    endloop
  endfacet
  facet normal -0.92388 -0.38268 0.00000
    outer loop
      vertex 0.95263 0.55000 4.00000
      vertex 1.06252 0.28470 5.00000
      vertex 0.95263 0.55000 5.00000
    endloop
  endfacet
  facet normal 0.00000 0.00000 1.00000
    outer loop
      vertex 2.80118 0.75058 5.00000
      vertex 2.51147 1.45000 5.00000
      vertex 0.95263 0.55000 5.00000
    endloop
  endfacet
  facet normal 0.00000 0.00000 1.00000
    outer loop
      vertex 2.80118 0.75058 5.00000
      vertex 0.95263 0.55000 5.00000
      vertex 1.06252 0.28470 5.00000
    endloop
  endfacet
  facet normal 0.00000 0.00000 -1.00000
    outer loop
      vertex 2.51147 1.45000 4.00000
      vertex 2.80118 0.75058 4.00000
      vertex 1.06252 0.28470 4.00000
    endloop
  endfacet
  facet normal 0.00000 0.00000 -1.00000
    outer loop
      vertex 2.51147 1.45000 4.00000
      vertex 1.06252 0.28470 4.00000
      vertex 0.95263 0.55000 4.00000
    endloop
  endfacet
  facet normal 0.79335 0.60876 0.00000
    outer loop
      vertex 2.51147 1.45000 4.00000
      vertex 2.05061 2.05061 4.00000
      vertex 2.05061 2.05061 5.00000
    endloop
  endfacet
  facet normal 0.79335 0.60876 0.00000
    outer loop
      vertex 2.51147 1.45000 4.00000
      vertex 2.05061 2.05061 5.00000
      vertex 2.51147 1.45000 5.00000
    endloop
  endfacet
  facet normal -0.79335 -0.60876 0.00000
    outer loop
      vertex 0.77782 0.77782 4.00000
      vertex 0.95263 0.55000 4.00000
      vertex 0.95263 0.55000 5.00000
    endloop
  endfacet
  facet normal -0.79335 -0.60876 0.00000
    outer loop
      vertex 0.77782 0.77782 4.00000
      vertex 0.95263 0.55000 5.00000
      vertex 0.77782 0.77782 5.00000
    endloop
  endfacet
  facet normal 0.00000 0.00000 1.00000
    outer loop
      vertex 2.51147 1.45000 5.00000
      vertex 2.05061 2.05061 5.00000
      vertex 0.77782 0.77782 5.00000
    endloop
  endfacet
  facet normal 0.00000 0.00000 1.00000
    outer loop
      vertex 2.51147 1.45000 5.00000
      vertex 0.77782 0.77782 5.00000
      vertex 0.95263 0.55000 5.00000
    endloop
  endfacet
  facet normal 0.00000 0.00000 -1.00000
    outer loop
      vertex 2.05061 2.05061 4.00000
      vertex 2.51147 1.45000 4.00000
      vertex 0.95263 0.55000 4.00000
    endloop
  endfacet
  facet normal 0.00000 0.00000 -1.00000
    outer loop
      vertex 2.05061 2.05061 4.00000
      vertex 0.95263 0.55000 4.00000
      vertex 0.77782 0.77782 4.00000
    endloop
  endfacet
  facet normal 0.60876 0.79335 0.00000
    outer loop
      vertex 2.05061 2.05061 4.00000
      vertex 1.45000 2.51147 4.00000
      vertex 1.45000 2.51147 5.00000
    endloop
  endfacet
  facet normal 0.60876 0.79335 0.00000
    outer loop
      vertex 2.05061 2.05061 4.00000
      vertex 1.45000 2.51147 5.00000
      vertex 2.05061 2.05061 5.00000
    endloop
  endfacet
  facet normal -0.60876 -0.79335 0.00000
    outer loop
      vertex 0.55000 0.95263 4.00000
      vertex 0.77782 0.77782 4.00000
      vertex 0.77782 0.77782 5.00000
    endloop
  endfacet
  facet normal -0.60876 -0.79335 0.00000
    outer loop
      vertex 0.55000 0.95263 4.00000
      vertex 0.77782 0.77782 5.00000
      vertex 0.55000 0.95263 5.00000
    endloop
  endfacet
  facet normal 0.00000 0.00000 1.00000
    outer loop
      vertex 2.05061 2.05061 5.00000
      vertex 1.45000 2.51147 5.00000
      vertex 0.55000 0.95263 5.00000
    endloop
  endfacet
  facet normal 0.00000 0.00000 1.00000
    outer loop
      vertex 2.05061 2.05061 5.00000
      vertex 0.55000 0.95263 5.00000
      vertex 0.77782 0.77782 5.00000
    endloop
  endfacet
  facet normal 0.00000 0.00000 -1.00000
    outer loop
      vertex 1.45000 2.51147 4.00000
      vertex 2.05061 2.05061 4.00000
      vertex 0.77782 0.77782 4.00000
    endloop
  endfacet
  facet normal 0.00000 0.00000 -1.00000
    outer loop
      vertex 1.45000 2.51147 4.00000
      vertex 0.77782 0.77782 4.00000
      vertex 0.55000 0.95263 4.00000
    endloop
  endfacet
  facet normal 0.38268 0.92388 0.00000
    outer loop
      vertex 1.45000 2.51147 4.00000
      vertex 0.75058 2.80118 4.00000
      vertex 0.75058 2.80118 5.00000
    endloop
  endfacet
  facet normal 0.38268 0.92388 0.00000
    outer loop
      vertex 1.45000 2.51147 4.00000
      vertex 0.75058 2.80118 5.00000
      vertex 1.45000 2.51147 5.00000
    endloop
  endfacet
  facet normal -0.38268 -0.92388 0.00000
    outer loop
      vertex 0.28470 1.06252 4.00000
      vertex 0.55000 0.95263 4.00000
      vertex 0.55000 0.95263 5.00000
    endloop
  endfacet
  facet normal -0.38268 -0.92388 0.00000
    outer loop
      vertex 0.28470 1.06252 4.00000
      vertex 0.55000 0.95263 5.00000
      vertex 0.28470 1.06252 5.00000
    endloop
  endfacet
  facet normal 0.00000 0.00000 1.00000
    outer loop
      vertex 1.45000 2.51147 5.00000
      vertex 0.75058 2.80118 5.00000
      vertex 0.28470 1.06252 5.00000
    endloop
  endfacet
  facet normal 0.00000 0.00000 1.00000
    outer loop
      vertex 1.45000 2.51147 5.00000
      vertex 0.28470 1.06252 5.00000
      vertex 0.55000 0.95263 5.00000
    endloop
  endfacet
  facet normal 0.00000 0.00000 -1.00000
    outer loop
      vertex 0.75058 2.80118 4.00000
      vertex 1.45000 2.51147 4.00000
      vertex 0.55000 0.95263 4.00000
    endloop
  endfacet
  facet normal 0.00000 0.00000 -1.00000
    outer loop
      vertex 0.75058 2.80118 4.00000
      vertex 0.55000 0.95263 4.00000
      vertex 0.28470 1.06252 4.00000
    endloop
  endfacet
  facet normal 0.13053 0.99144 0.00000
    outer loop
      vertex 0.75058 2.80118 4.00000
      vertex 0.00000 2.90000 4.00000
      vertex 0.00000 2.90000 5.00000
    endloop
  endfacet
  facet normal 0.13053 0.99144 0.00000
    outer loop
      vertex 0.75058 2.80118 4.00000
      vertex 0.00000 2.90000 5.00000
      vertex 0.75058 2.80118 5.00000
    endloop
  endfacet
  facet normal -0.13053 -0.99144 0.00000
    outer loop
      vertex 0.00000 1.10000 4.00000
      vertex 0.28470 1.06252 4.00000
      vertex 0.28470 1.06252 5.00000
    endloop
  endfacet
  facet normal -0.13053 -0.99144 0.00000
    outer loop
      vertex 0.00000 1.10000 4.00000
      vertex 0.28470 1.06252 5.00000
      vertex 0.00000 1.10000 5.00000
    endloop
  endfacet
  facet normal 0.00000 0.00000 1.00000
    outer loop
      vertex 0.75058 2.80118 5.00000
      vertex 0.00000 2.90000 5.00000
      vertex 0.00000 1.10000 5.00000
    endloop
  endfacet
  facet normal 0.00000 0.00000 1.00000
    outer loop
      vertex 0.75058 2.80118 5.00000
      vertex 0.00000 1.10000 5.00000
      vertex 0.28470 1.06252 5.00000
    endloop
  endfacet
  facet normal 0.00000 0.00000 -1.00000
    outer loop
      vertex 0.00000 2.90000 4.00000
      vertex 0.75058 2.80118 4.00000
      vertex 0.28470 1.06252 4.00000
    endloop
  endfacet
  facet normal 0.00000 0.00000 -1.00000
    outer loop
      vertex 0.00000 2.90000 4.00000
      vertex 0.28470 1.06252 4.00000
      vertex 0.00000 1.10000 4.00000
    endloop
  endfacet
  facet normal -0.13053 0.99144 0.00000
    outer loop
      vertex 0.00000 2.90000 4.00000
      vertex -0.75058 2.80118 4.00000
      vertex -0.75058 2.80118 5.00000
    endloop
  endfacet
  facet normal -0.13053 0.99144 0.00000
    outer loop
      vertex 0.00000 2.90000 4.00000
      vertex -0.75058 2.80118 5.00000
      vertex 0.00000 2.90000 5.00000
    endloop
  endfacet
  facet normal 0.13053 -0.99144 0.00000
    outer loop
      vertex -0.28470 1.06252 4.00000
      vertex 0.00000 1.10000 4.00000
      vertex 0.00000 1.10000 5.00000
    endloop
  endfacet
  facet normal 0.13053 -0.99144 0.00000
    outer loop
      vertex -0.28470 1.06252 4.00000
      vertex 0.00000 1.10000 5.00000
      vertex -0.28470 1.06252 5.00000
    endloop
  endfacet
  facet normal 0.00000 0.00000 1.00000
    outer loop
      vertex 0.00000 2.90000 5.00000
      vertex -0.75058 2.80118 5.00000
      vertex -0.28470 1.06252 5.00000
    endloop
  endfacet
  facet normal 0.00000 0.00000 1.00000
    outer loop
      vertex 0.00000 2.90000 5.00000
      vertex -0.28470 1.06252 5.00000
      vertex 0.00000 1.10000 5.00000
    endloop
  endfacet
  facet normal 0.00000 0.00000 -1.00000
    outer loop
      vertex -0.75058 2.80118 4.00000
      vertex 0.00000 2.90000 4.00000
      vertex 0.00000 1.10000 4.00000
    endloop
  endfacet
  facet normal 0.00000 0.00000 -1.00000
    outer loop
      vertex -0.75058 2.80118 4.00000
      vertex 0.00000 1.10000 4.00000
      vertex -0.28470 1.06252 4.00000
    endloop
  endfacet
  facet normal -0.38268 0.92388 0.00000
    outer loop
      vertex -0.75058 2.80118 4.00000
      vertex -1.45000 2.51147 4.00000
      vertex -1.45000 2.51147 5.00000
    endloop
  endfacet
  facet normal -0.38268 0.92388 0.00000
    outer loop
      vertex -0.75058 2.80118 4.00000
      vertex -1.45000 2.51147 5.00000
      vertex -0.75058 2.80118 5.00000
    endloop
  endfacet
  facet normal 0.38268 -0.92388 0.00000
    outer loop
      vertex -0.55000 0.95263 4.00000
      vertex -0.28470 1.06252 4.00000
      vertex -0.28470 1.06252 5.00000
    endloop
  endfacet
  facet normal 0.38268 -0.92388 0.00000
    outer loop
      vertex -0.55000 0.95263 4.00000
      vertex -0.28470 1.06252 5.00000
      vertex -0.55000 0.95263 5.00000
    endloop
  endfacet
  facet normal 0.00000 0.00000 1.00000
    outer loop
      vertex -0.75058 2.80118 5.00000
      vertex -1.45000 2.51147 5.00000
      vertex -0.55000 0.95263 5.00000
    endloop
  endfacet
  facet normal 0.00000 0.00000 1.00000
    outer loop
      vertex -0.75058 2.80118 5.00000
      vertex -0.55000 0.95263 5.00000
      vertex -0.28470 1.06252 5.00000
    endloop
  endfacet
  facet normal 0.00000 0.00000 -1.00000
    outer loop
      vertex -1.45000 2.51147 4.00000
      vertex -0.75058 2.80118 4.00000
      vertex -0.28470 1.06252 4.00000
    endloop
  endfacet
  facet normal 0.00000 0.00000 -1.00000
    outer loop
      vertex -1.45000 2.51147 4.00000
      vertex -0.28470 1.06252 4.00000
      vertex -0.55000 0.95263 4.00000
    endloop
  endfacet
  facet normal -0.60876 0.79335 0.00000
    outer loop
      vertex -1.45000 2.51147 4.00000
      vertex -2.05061 2.05061 4.00000
      vertex -2.05061 2.05061 5.00000
    endloop
  endfacet
  facet normal -0.60876 0.79335 0.00000
    outer loop
      vertex -1.45000 2.51147 4.00000
      vertex -2.05061 2.05061 5.00000
      vertex -1.45000 2.51147 5.00000
    endloop
  endfacet
  facet normal 0.60876 -0.79335 0.00000
    outer loop
      vertex -0.77782 0.77782 4.00000
      vertex -0.55000 0.95263 4.00000
      vertex -0.55000 0.95263 5.00000
    endloop
  endfacet
  facet normal 0.60876 -0.79335 0.00000
    outer loop
      vertex -0.77782 0.77782 4.00000
      vertex -0.55000 0.95263 5.00000
      vertex -0.77782 0.77782 5.00000
    endloop
  endfacet
  facet normal 0.00000 0.00000 1.00000
    outer loop
      vertex -1.45000 2.51147 5.00000
      vertex -2.05061 2.05061 5.00000
      vertex -0.77782 0.77782 5.00000
    endloop
  endfacet
  facet normal 0.00000 0.00000 1.00000
    outer loop
      vertex -1.45000 2.51147 5.00000
      vertex -0.77782 0.77782 5.00000
      vertex -0.55000 0.95263 5.00000
    endloop
  endfacet
  facet normal 0.00000 0.00000 -1.00000
    outer loop
      vertex -2.05061 2.05061 4.00000
      vertex -1.45000 2.51147 4.00000
      vertex -0.55000 0.95263 4.00000
    endloop
  endfacet
  facet normal 0.00000 0.00000 -1.00000
    outer loop
      vertex -2.05061 2.05061 4.00000
      vertex -0.55000 0.95263 4.00000
      vertex -0.77782 0.77782 4.00000
    endloop
  endfacet
  facet normal -0.79335 0.60876 0.00000
    outer loop
      vertex -2.05061 2.05061 4.00000
      vertex -2.51147 1.45000 4.00000
      vertex -2.51147 1.45000 5.00000
    endloop
  endfacet
  facet normal -0.79335 0.60876 0.00000
    outer loop
      vertex -2.05061 2.05061 4.00000
      vertex -2.51147 1.45000 5.00000
      vertex -2.05061 2.05061 5.00000
    endloop
  endfacet
  facet normal 0.79335 -0.60876 0.00000
    outer loop
      vertex -0.95263 0.55000 4.00000
      vertex -0.77782 0.77782 4.00000
      vertex -0.77782 0.77782 5.00000
    endloop
  endfacet
  facet normal 0.79335 -0.60876 0.00000
    outer loop
      vertex -0.95263 0.55000 4.00000
      vertex -0.77782 0.77782 5.00000
      vertex -0.95263 0.55000 5.00000
    endloop
  endfacet
  facet normal 0.00000 0.00000 1.00000
    outer loop
      vertex -2.05061 2.05061 5.00000
      vertex -2.51147 1.45000 5.00000
      vertex -0.95263 0.55000 5.00000
    endloop
  endfacet
  facet normal 0.00000 0.00000 1.00000
    outer loop
      vertex -2.05061 2.05061 5.00000
      vertex -0.95263 0.55000 5.00000
      vertex -0.77782 0.77782 5.00000
    endloop
  endfacet
  facet normal 0.00000 0.00000 -1.00000
    outer loop
      vertex -2.51147 1.45000 4.00000
      vertex -2.05061 2.05061 4.00000
      vertex -0.77782 0.77782 4.00000
    endloop
  endfacet
  facet normal 0.00000 0.00000 -1.00000
    outer loop
      vertex -2.51147 1.45000 4.00000
      vertex -0.77782 0.77782 4.00000
      vertex -0.95263 0.55000 4.00000
    endloop
  endfacet
  facet normal -0.92388 0.38268 0.00000
    outer loop
      vertex -2.51147 1.45000 4.00000
      vertex -2.80118 0.75058 4.00000
      vertex -2.80118 0.75058 5.00000
    endloop
  endfacet
  facet normal -0.92388 0.38268 0.00000
    outer loop
      vertex -2.51147 1.45000 4.00000
      vertex -2.80118 0.75058 5.00000
      vertex -2.51147 1.45000 5.00000
    endloop
  endfacet
  facet normal 0.92388 -0.38268 0.00000
    outer loop
      vertex -1.06252 0.28470 4.00000
      vertex -0.95263 0.55000 4.00000
      vertex -0.95263 0.55000 5.00000
    endloop
  endfacet
  facet normal 0.92388 -0.38268 0.00000
    outer loop
      vertex -1.06252 0.28470 4.00000
      vertex -0.95263 0.55000 5.00000
      vertex -1.06252 0.28470 5.00000
    endloop
  endfacet
  facet normal 0.00000 0.00000 1.00000
    outer loop
      vertex -2.51147 1.45000 5.00000
      vertex -2.80118 0.75058 5.00000
      vertex -1.06252 0.28470 5.00000
    endloop
  endfacet
  facet normal 0.00000 0.00000 1.00000
    outer loop
      vertex -2.51147 1.45000 5.00000
      vertex -1.06252 0.28470 5.00000
      vertex -0.95263 0.55000 5.00000
    endloop
  endfacet
  facet normal 0.00000 0.00000 -1.00000
    outer loop
      vertex -2.80118 0.75058 4.00000
      vertex -2.51147 1.45000 4.00000
      vertex -0.95263 0.55000 4.00000
    endloop
  endfacet
  facet normal 0.00000 0.00000 -1.00000
    outer loop
      vertex -2.80118 0.75058 4.00000
      vertex -0.95263 0.55000 4.00000
      vertex -1.06252 0.28470 4.00000
    endloop
  endfacet
  facet normal -0.99144 0.13053 0.00000
    outer loop
      vertex -2.80118 0.75058 4.00000
      vertex -2.90000 0.00000 4.00000
      vertex -2.90000 0.00000 5.00000
    endloop
  endfacet
  facet normal -0.99144 0.13053 0.00000
    outer loop
      vertex -2.80118 0.75058 4.00000
      vertex -2.90000 0.00000 5.00000
      vertex -2.80118 0.75058 5.00000
    endloop
  endfacet
  facet normal 0.99144 -0.13053 0.00000
    outer loop
      vertex -1.10000 0.00000 4.00000
      vertex -1.06252 0.28470 4.00000
      vertex -1.06252 0.28470 5.00000
    endloop
  endfacet
  facet normal 0.99144 -0.13053 0.00000
    outer loop
      vertex -1.10000 0.00000 4.00000
      vertex -1.06252 0.28470 5.00000
      vertex -1.10000 0.00000 5.00000
    endloop
  endfacet
  facet normal 0.00000 0.00000 1.00000
    outer loop
      vertex -2.80118 0.75058 5.00000
      vertex -2.90000 0.00000 5.00000
      vertex -1.10000 0.00000 5.00000
    endloop
  endfacet
  facet normal 0.00000 0.00000 1.00000
    outer loop
      vertex -2.80118 0.75058 5.00000
      vertex -1.10000 0.00000 5.00000
      vertex -1.06252 0.28470 5.00000
    endloop
  endfacet
  facet normal 0.00000 0.00000 -1.00000
    outer loop
      vertex -2.90000 0.00000 4.00000
      vertex -2.80118 0.75058 4.00000
      vertex -1.06252 0.28470 4.00000
    endloop
  endfacet
  facet normal 0.00000 0.00000 -1.00000
    outer loop
      vertex -2.90000 0.00000 4.00000
      vertex -1.06252 0.28470 4.00000
      vertex -1.10000 0.00000 4.00000
    endloop
  endfacet
  facet normal -0.99144 -0.13053 0.00000
    outer loop
      vertex -2.90000 0.00000 4.00000
      vertex -2.80118 -0.75058 4.00000
      vertex -2.80118 -0.75058 5.00000
    endloop
  endfacet
  facet normal -0.99144 -0.13053 0.00000
    outer loop
      vertex -2.90000 0.00000 4.00000
      vertex -2.80118 -0.75058 5.00000
      vertex -2.90000 0.00000 5.00000
    endloop
  endfacet
  facet normal 0.99144 0.13053 0.00000
    outer loop
      vertex -1.06252 -0.28470 4.00000
      vertex -1.10000 0.00000 4.00000
      vertex -1.10000 0.00000 5.00000
    endloop
  endfacet
  facet normal 0.99144 0.13053 0.00000
    outer loop
      vertex -1.06252 -0.28470 4.00000
      vertex -1.10000 0.00000 5.00000
      vertex -1.06252 -0.28470 5.00000
    endloop
  endfacet
  facet normal 0.00000 0.00000 1.00000
    outer loop
      vertex -2.90000 0.00000 5.00000
      vertex -2.80118 -0.75058 5.00000
      vertex -1.06252 -0.28470 5.00000
    endloop
  endfacet
  facet normal 0.00000 0.00000 1.00000
    outer loop
      vertex -2.90000 0.00000 5.00000
      vertex -1.06252 -0.28470 5.00000
      vertex -1.10000 0.00000 5.00000
    endloop
  endfacet
  facet normal 0.00000 0.00000 -1.00000
    outer loop
      vertex -2.80118 -0.75058 4.00000
      vertex -2.90000 0.00000 4.00000
      vertex -1.10000 0.00000 4.00000
    endloop
  endfacet
  facet normal 0.00000 0.00000 -1.00000
    outer loop
      vertex -2.80118 -0.75058 4.00000
      vertex -1.10000 0.00000 4.00000
      vertex -1.06252 -0.28470 4.00000
    endloop
  endfacet
  facet normal -0.92388 -0.38268 0.00000
    outer loop
      vertex -2.80118 -0.75058 4.00000
      vertex -2.51147 -1.45000 4.00000
      vertex -2.51147 -1.45000 5.00000
    endloop
  endfacet
  facet normal -0.92388 -0.38268 0.00000
    outer loop
      vertex -2.80118 -0.75058 4.00000
      vertex -2.51147 -1.45000 5.00000
      vertex -2.80118 -0.75058 5.00000
    endloop
  endfacet
  facet normal 0.92388 0.38268 0.00000
    outer loop
      vertex -0.95263 -0.55000 4.00000
      vertex -1.06252 -0.28470 4.00000
      vertex -1.06252 -0.28470 5.00000
    endloop
  endfacet
  facet normal 0.92388 0.38268 0.00000
    outer loop
      vertex -0.95263 -0.55000 4.00000
      vertex -1.06252 -0.28470 5.00000
      vertex -0.95263 -0.55000 5.00000
    endloop
  endfacet
  facet normal 0.00000 0.00000 1.00000
    outer loop
      vertex -2.80118 -0.75058 5.00000
      vertex -2.51147 -1.45000 5.00000
      vertex -0.95263 -0.55000 5.00000
    endloop
  endfacet
  facet normal 0.00000 0.00000 1.00000
    outer loop
      vertex -2.80118 -0.75058 5.00000
      vertex -0.95263 -0.55000 5.00000
      vertex -1.06252 -0.28470 5.00000
    endloop
  endfacet
  facet normal 0.00000 0.00000 -1.00000
    outer loop
      vertex -2.51147 -1.45000 4.00000
      vertex -2.80118 -0.75058 4.00000
      vertex -1.06252 -0.28470 4.00000
    endloop
  endfacet
  facet normal 0.00000 0.00000 -1.00000
    outer loop
      vertex -2.51147 -1.45000 4.00000
      vertex -1.06252 -0.28470 4.00000
      vertex -0.95263 -0.55000 4.00000
    endloop
  endfacet
  facet normal -0.79335 -0.60876 0.00000
    outer loop
      vertex -2.51147 -1.45000 4.00000
      vertex -2.05061 -2.05061 4.00000
      vertex -2.05061 -2.05061 5.00000
    endloop
  endfacet
  facet normal -0.79335 -0.60876 0.00000
    outer loop
      vertex -2.51147 -1.45000 4.00000
      vertex -2.05061 -2.05061 5.00000
      vertex -2.51147 -1.45000 5.00000
    endloop
  endfacet
  facet normal 0.79335 0.60876 0.00000
    outer loop
      vertex -0.77782 -0.77782 4.00000
      vertex -0.95263 -0.55000 4.00000
      vertex -0.95263 -0.55000 5.00000
    endloop
  endfacet
  facet normal 0.79335 0.60876 0.00000
    outer loop
      vertex -0.77782 -0.77782 4.00000
      vertex -0.95263 -0.55000 5.00000
      vertex -0.77782 -0.77782 5.00000
    endloop
  endfacet
  facet normal 0.00000 0.00000 1.00000
    outer loop
      vertex -2.51147 -1.45000 5.00000
      vertex -2.05061 -2.05061 5.00000
      vertex -0.77782 -0.77782 5.00000
    endloop
  endfacet
  facet normal 0.00000 0.00000 1.00000
    outer loop
      vertex -2.51147 -1.45000 5.00000
      vertex -0.77782 -0.77782 5.00000
      vertex -0.95263 -0.55000 5.00000
    endloop
  endfacet
  facet normal 0.00000 0.00000 -1.00000
    outer loop
      vertex -2.05061 -2.05061 4.00000
      vertex -2.51147 -1.45000 4.00000
      vertex -0.95263 -0.55000 4.00000
    endloop
  endfacet
  facet normal 0.00000 0.00000 -1.00000
    outer loop
      vertex -2.05061 -2.05061 4.00000
      vertex -0.95263 -0.55000 4.00000
      vertex -0.77782 -0.77782 4.00000
    endloop
  endfacet
  facet normal -0.60876 -0.79335 0.00000
    outer loop
      vertex -2.05061 -2.05061 4.00000
      vertex -1.45000 -2.51147 4.00000
      vertex -1.45000 -2.51147 5.00000
    endloop
  endfacet
  facet normal -0.60876 -0.79335 0.00000
    outer loop
      vertex -2.05061 -2.05061 4.00000
      vertex -1.45000 -2.51147 5.00000
      vertex -2.05061 -2.05061 5.00000
    endloop
  endfacet
  facet normal 0.60876 0.79335 0.00000
    outer loop
      vertex -0.55000 -0.95263 4.00000
      vertex -0.77782 -0.77782 4.00000
      vertex -0.77782 -0.77782 5.00000
    endloop
  endfacet
  facet normal 0.60876 0.79335 0.00000
    outer loop
      vertex -0.55000 -0.95263 4.00000
      vertex -0.77782 -0.77782 5.00000
      vertex -0.55000 -0.95263 5.00000
    endloop
  endfacet
  facet normal 0.00000 0.00000 1.00000
    outer loop
      vertex -2.05061 -2.05061 5.00000
      vertex -1.45000 -2.51147 5.00000
      vertex -0.55000 -0.95263 5.00000
    endloop
  endfacet
  facet normal 0.00000 0.00000 1.00000
    outer loop
      vertex -2.05061 -2.05061 5.00000
      vertex -0.55000 -0.95263 5.00000
      vertex -0.77782 -0.77782 5.00000
    endloop
  endfacet
  facet normal 0.00000 0.00000 -1.00000
    outer loop
      vertex -1.45000 -2.51147 4.00000
      vertex -2.05061 -2.05061 4.00000
      vertex -0.77782 -0.77782 4.00000
    endloop
  endfacet
  facet normal 0.00000 0.00000 -1.00000
    outer loop
      vertex -1.45000 -2.51147 4.00000
      vertex -0.77782 -0.77782 4.00000
      vertex -0.55000 -0.95263 4.00000
    endloop
  endfacet
  facet normal -0.38268 -0.92388 0.00000
    outer loop
      vertex -1.45000 -2.51147 4.00000
      vertex -0.75058 -2.80118 4.00000
      vertex -0.75058 -2.80118 5.00000
    endloop
  endfacet
  facet normal -0.38268 -0.92388 0.00000
    outer loop
      vertex -1.45000 -2.51147 4.00000
      vertex -0.75058 -2.80118 5.00000
      vertex -1.45000 -2.51147 5.00000
    endloop
  endfacet
  facet normal 0.38268 0.92388 0.00000
    outer loop
      vertex -0.28470 -1.06252 4.00000
      vertex -0.55000 -0.95263 4.00000
      vertex -0.55000 -0.95263 5.00000
    endloop
  endfacet
  facet normal 0.38268 0.92388 0.00000
    outer loop
      vertex -0.28470 -1.06252 4.00000
      vertex -0.55000 -0.95263 5.00000
      vertex -0.28470 -1.06252 5.00000
    endloop
  endfacet
  facet normal 0.00000 0.00000 1.00000
    outer loop
      vertex -1.45000 -2.51147 5.00000
      vertex -0.75058 -2.80118 5.00000
      vertex -0.28470 -1.06252 5.00000
    endloop
  endfacet
  facet normal 0.00000 0.00000 1.00000
    outer loop
      vertex -1.45000 -2.51147 5.00000
      vertex -0.28470 -1.06252 5.00000
      vertex -0.55000 -0.95263 5.00000
    endloop
  endfacet
  facet normal 0.00000 0.00000 -1.00000
    outer loop
      vertex -0.75058 -2.80118 4.00000
      vertex -1.45000 -2.51147 4.00000
      vertex -0.55000 -0.95263 4.00000
    endloop
  endfacet
  facet normal 0.00000 0.00000 -1.00000
    outer loop
      vertex -0.75058 -2.80118 4.00000
      vertex -0.55000 -0.95263 4.00000
      vertex -0.28470 -1.06252 4.00000
    endloop
  endfacet
  facet normal -0.13053 -0.99144 0.00000
    outer loop
      vertex -0.75058 -2.80118 4.00000
      vertex 0.00000 -2.90000 4.00000
      vertex 0.00000 -2.90000 5.00000
    endloop
  endfacet
  facet normal -0.13053 -0.99144 0.00000
    outer loop
      vertex -0.75058 -2.80118 4.00000
      vertex 0.00000 -2.90000 5.00000
      vertex -0.75058 -2.80118 5.00000
    endloop
  endfacet
  facet normal 0.13053 0.99144 0.00000
    outer loop
      vertex 0.00000 -1.10000 4.00000
      vertex -0.28470 -1.06252 4.00000
      vertex -0.28470 -1.06252 5.00000
    endloop
  endfacet
  facet normal 0.13053 0.99144 0.00000
    outer loop
      vertex 0.00000 -1.10000 4.00000
      vertex -0.28470 -1.06252 5.00000
      vertex 0.00000 -1.10000 5.00000
    endloop
  endfacet
  facet normal 0.00000 0.00000 1.00000
    outer loop
      vertex -0.75058 -2.80118 5.00000
      vertex 0.00000 -2.90000 5.00000
      vertex 0.00000 -1.10000 5.00000
    endloop
  endfacet
  facet normal 0.00000 0.00000 1.00000
    outer loop
      vertex -0.75058 -2.80118 5.00000
      vertex 0.00000 -1.10000 5.00000
      vertex -0.28470 -1.06252 5.00000
    endloop
  endfacet
  facet normal 0.00000 0.00000 -1.00000
    outer loop
      vertex 0.00000 -2.90000 4.00000
      vertex -0.75058 -2.80118 4.00000
      vertex -0.28470 -1.06252 4.00000
    endloop
  endfacet
  facet normal 0.00000 0.00000 -1.00000
    outer loop
      vertex 0.00000 -2.90000 4.00000
      vertex -0.28470 -1.06252 4.00000
      vertex 0.00000 -1.10000 4.00000
    endloop
  endfacet
  facet normal 0.13053 -0.99144 0.00000
    outer loop
      vertex 0.00000 -2.90000 4.00000
      vertex 0.75058 -2.80118 4.00000
      vertex 0.75058 -2.80118 5.00000
    endloop
  endfacet
  facet normal 0.13053 -0.99144 0.00000
    outer loop
      vertex 0.00000 -2.90000 4.00000
      vertex 0.75058 -2.80118 5.00000
      vertex 0.00000 -2.90000 5.00000
    endloop
  endfacet
  facet normal -0.13053 0.99144 0.00000
    outer loop
      vertex 0.28470 -1.06252 4.00000
      vertex 0.00000 -1.10000 4.00000
      vertex 0.00000 -1.10000 5.00000
    endloop
  endfacet
  facet normal -0.13053 0.99144 0.00000
    outer loop
      vertex 0.28470 -1.06252 4.00000
      vertex 0.00000 -1.10000 5.00000
      vertex 0.28470 -1.06252 5.00000
    endloop
  endfacet
  facet normal 0.00000 0.00000 1.00000
    outer loop
      vertex 0.00000 -2.90000 5.00000
      vertex 0.75058 -2.80118 5.00000
      vertex 0.28470 -1.06252 5.00000
    endloop
  endfacet
  facet normal 0.00000 0.00000 1.00000
    outer loop
      vertex 0.00000 -2.90000 5.00000
      vertex 0.28470 -1.06252 5.00000
      vertex 0.00000 -1.10000 5.00000
    endloop
  endfacet
  facet normal 0.00000 0.00000 -1.00000
    outer loop
      vertex 0.75058 -2.80118 4.00000
      vertex 0.00000 -2.90000 4.00000
      vertex 0.00000 -1.10000 4.00000
    endloop
  endfacet
  facet normal 0.00000 0.00000 -1.00000
    outer loop
      vertex 0.75058 -2.80118 4.00000
      vertex 0.00000 -1.10000 4.00000
      vertex 0.28470 -1.06252 4.00000
    endloop
  endfacet
  facet normal 0.38268 -0.92388 0.00000
    outer loop
      vertex 0.75058 -2.80118 4.00000
      vertex 1.45000 -2.51147 4.00000
      vertex 1.45000 -2.51147 5.00000
    endloop
  endfacet
  facet normal 0.38268 -0.92388 0.00000
    outer loop
      vertex 0.75058 -2.80118 4.00000
      vertex 1.45000 -2.51147 5.00000
      vertex 0.75058 -2.80118 5.00000
    endloop
  endfacet
  facet normal -0.38268 0.92388 0.00000
    outer loop
      vertex 0.55000 -0.95263 4.00000
      vertex 0.28470 -1.06252 4.00000
      vertex 0.28470 -1.06252 5.00000
    endloop
  endfacet
  facet normal -0.38268 0.92388 0.00000
    outer loop
      vertex 0.55000 -0.95263 4.00000
      vertex 0.28470 -1.06252 5.00000
      vertex 0.55000 -0.95263 5.00000
    endloop
  endfacet
  facet normal 0.00000 0.00000 1.00000
    outer loop
      vertex 0.75058 -2.80118 5.00000
      vertex 1.45000 -2.51147 5.00000
      vertex 0.55000 -0.95263 5.00000
    endloop
  endfacet
  facet normal 0.00000 0.00000 1.00000
    outer loop
      vertex 0.75058 -2.80118 5.00000
      vertex 0.55000 -0.95263 5.00000
      vertex 0.28470 -1.06252 5.00000
    endloop
  endfacet
  facet normal 0.00000 0.00000 -1.00000
    outer loop
      vertex 1.45000 -2.51147 4.00000
      vertex 0.75058 -2.80118 4.00000
      vertex 0.28470 -1.06252 4.00000
    endloop
  endfacet
  facet normal 0.00000 0.00000 -1.00000
    outer loop
      vertex 1.45000 -2.51147 4.00000
      vertex 0.28470 -1.06252 4.00000
      vertex 0.55000 -0.95263 4.00000
    endloop
  endfacet
  facet normal 0.60876 -0.79335 0.00000
    outer loop
      vertex 1.45000 -2.51147 4.00000
      vertex 2.05061 -2.05061 4.00000
      vertex 2.05061 -2.05061 5.00000
    endloop
  endfacet
  facet normal 0.60876 -0.79335 0.00000
    outer loop
      vertex 1.45000 -2.51147 4.00000
      vertex 2.05061 -2.05061 5.00000
      vertex 1.45000 -2.51147 5.00000
    endloop
  endfacet
  facet normal -0.60876 0.79335 0.00000
    outer loop
      vertex 0.77782 -0.77782 4.00000
      vertex 0.55000 -0.95263 4.00000
      vertex 0.55000 -0.95263 5.00000
    endloop
  endfacet
  facet normal -0.60876 0.79335 0.00000
    outer loop
      vertex 0.77782 -0.77782 4.00000
      vertex 0.55000 -0.95263 5.00000
      vertex 0.77782 -0.77782 5.00000
    endloop
  endfacet
  facet normal 0.00000 0.00000 1.00000
    outer loop
      vertex 1.45000 -2.51147 5.00000
      vertex 2.05061 -2.05061 5.00000
      vertex 0.77782 -0.77782 5.00000
    endloop
  endfacet
  facet normal 0.00000 0.00000 1.00000
    outer loop
      vertex 1.45000 -2.51147 5.00000
      vertex 0.77782 -0.77782 5.00000
      vertex 0.55000 -0.95263 5.00000
    endloop
  endfacet
  facet normal 0.00000 0.00000 -1.00000
    outer loop
      vertex 2.05061 -2.05061 4.00000
      vertex 1.45000 -2.51147 4.00000
      vertex 0.55000 -0.95263 4.00000
    endloop
  endfacet
  facet normal 0.00000 0.00000 -1.00000
    outer loop
      vertex 2.05061 -2.05061 4.00000
      vertex 0.55000 -0.95263 4.00000
      vertex 0.77782 -0.77782 4.00000
    endloop
  endfacet
  facet normal 0.79335 -0.60876 0.00000
    outer loop
      vertex 2.05061 -2.05061 4.00000
      vertex 2.51147 -1.45000 4.00000
      vertex 2.51147 -1.45000 5.00000
    endloop
  endfacet
  facet normal 0.79335 -0.60876 0.00000
    outer loop
      vertex 2.05061 -2.05061 4.00000
      vertex 2.51147 -1.45000 5.00000
      vertex 2.05061 -2.05061 5.00000
    endloop
  endfacet
  facet normal -0.79335 0.60876 0.00000
    outer loop
      vertex 0.95263 -0.55000 4.00000
      vertex 0.77782 -0.77782 4.00000
      vertex 0.77782 -0.77782 5.00000
    endloop
  endfacet
  facet normal -0.79335 0.60876 0.00000
    outer loop
      vertex 0.95263 -0.55000 4.00000
      vertex 0.77782 -0.77782 5.00000
      vertex 0.95263 -0.55000 5.00000
    endloop
  endfacet
  facet normal 0.00000 0.00000 1.00000
    outer loop
      vertex 2.05061 -2.05061 5.00000
      vertex 2.51147 -1.45000 5.00000
      vertex 0.95263 -0.55000 5.00000
    endloop
  endfacet
  facet normal 0.00000 0.00000 1.00000
    outer loop
      vertex 2.05061 -2.05061 5.00000
      vertex 0.95263 -0.55000 5.00000
      vertex 0.77782 -0.77782 5.00000
    endloop
  endfacet
  facet normal 0.00000 0.00000 -1.00000
    outer loop
      vertex 2.51147 -1.45000 4.00000
      vertex 2.05061 -2.05061 4.00000
      vertex 0.77782 -0.77782 4.00000
    endloop
  endfacet
  facet normal 0.00000 0.00000 -1.00000
    outer loop
      vertex 2.51147 -1.45000 4.00000
      vertex 0.77782 -0.77782 4.00000
      vertex 0.95263 -0.55000 4.00000
    endloop
  endfacet
  facet normal 0.92388 -0.38268 0.00000
    outer loop
      vertex 2.51147 -1.45000 4.00000
      vertex 2.80118 -0.75058 4.00000
      vertex 2.80118 -0.75058 5.00000
    endloop
  endfacet
  facet normal 0.92388 -0.38268 0.00000
    outer loop
      vertex 2.51147 -1.45000 4.00000
      vertex 2.80118 -0.75058 5.00000
      vertex 2.51147 -1.45000 5.00000
    endloop
  endfacet
  facet normal -0.92388 0.38268 0.00000
    outer loop
      vertex 1.06252 -0.28470 4.00000
      vertex 0.95263 -0.55000 4.00000
      vertex 0.95263 -0.55000 5.00000
    endloop
  endfacet
  facet normal -0.92388 0.38268 0.00000
    outer loop
      vertex 1.06252 -0.28470 4.00000
      vertex 0.95263 -0.55000 5.00000
      vertex 1.06252 -0.28470 5.00000
    endloop
  endfacet
  facet normal 0.00000 0.00000 1.00000
    outer loop
      vertex 2.51147 -1.45000 5.00000
      vertex 2.80118 -0.75058 5.00000
      vertex 1.06252 -0.28470 5.00000
    endloop
  endfacet
  facet normal 0.00000 0.00000 1.00000
    outer loop
      vertex 2.51147 -1.45000 5.00000
      vertex 1.06252 -0.28470 5.00000
      vertex 0.95263 -0.55000 5.00000
    endloop
  endfacet
  facet normal 0.00000 0.00000 -1.00000
    outer loop
      vertex 2.80118 -0.75058 4.00000
      vertex 2.51147 -1.45000 4.00000
      vertex 0.95263 -0.55000 4.00000
    endloop
  endfacet
  facet normal 0.00000 0.00000 -1.00000
    outer loop
      vertex 2.80118 -0.75058 4.00000
      vertex 0.95263 -0.55000 4.00000
      vertex 1.06252 -0.28470 4.00000
    endloop
  endfacet
  facet normal 0.99144 -0.13053 0.00000
    outer loop
      vertex 2.80118 -0.75058 4.00000
      vertex 2.90000 0.00000 4.00000
      vertex 2.90000 0.00000 5.00000
    endloop
  endfacet
  facet normal 0.99144 -0.13053 0.00000
    outer loop
      vertex 2.80118 -0.75058 4.00000
      vertex 2.90000 0.00000 5.00000
      vertex 2.80118 -0.75058 5.00000
    endloop
  endfacet
  facet normal -0.99144 0.13053 0.00000
    outer loop
      vertex 1.10000 0.00000 4.00000
      vertex 1.06252 -0.28470 4.00000
      vertex 1.06252 -0.28470 5.00000
    endloop
  endfacet
  facet normal -0.99144 0.13053 0.00000
    outer loop
      vertex 1.10000 0.00000 4.00000
      vertex 1.06252 -0.28470 5.00000
      vertex 1.10000 0.00000 5.00000
    endloop
  endfacet
  facet normal 0.00000 0.00000 1.00000
    outer loop
      vertex 2.80118 -0.75058 5.00000
      vertex 2.90000 0.00000 5.00000
      vertex 1.10000 0.00000 5.00000
    endloop
  endfacet
  facet normal 0.00000 0.00000 1.00000
    outer loop
      vertex 2.80118 -0.75058 5.00000
      vertex 1.10000 0.00000 5.00000
      vertex 1.06252 -0.28470 5.00000
    endloop
  endfacet
  facet normal 0.00000 0.00000 -1.00000
    outer loop
      vertex 2.90000 0.00000 4.00000
      vertex 2.80118 -0.75058 4.00000
      vertex 1.06252 -0.28470 4.00000
    endloop
  endfacet
  facet normal 0.00000 0.00000 -1.00000
    outer loop
      vertex 2.90000 0.00000 4.00000
      vertex 1.06252 -0.28470 4.00000
      vertex 1.10000 0.00000 4.00000
    endloop
  endfacet
  facet normal 0.00000 0.00000 1.00000
    outer loop
      vertex -9.00000 -3.25000 0.00000
      vertex -6.00000 -3.25000 0.00000
      vertex -6.00000 3.25000 0.00000
    endloop
  endfacet
  facet normal 0.00000 0.00000 1.00000
    outer loop
      vertex -9.00000 -3.25000 0.00000
      vertex -6.00000 3.25000 0.00000
      vertex -9.00000 3.25000 0.00000
    endloop
  endfacet
  facet normal 0.00000 0.00000 -1.00000
    outer loop
      vertex -9.00000 -3.25000 2.40000
      vertex -9.00000 3.25000 2.40000
      vertex -6.00000 3.25000 2.40000
    endloop
  endfacet
  facet normal 0.00000 0.00000 -1.00000
    outer loop
      vertex -9.00000 -3.25000 2.40000
      vertex -6.00000 3.25000 2.40000
      vertex -6.00000 -3.25000 2.40000
    endloop
  endfacet
  facet normal 0.00000 1.00000 0.00000
    outer loop
      vertex -9.00000 -3.25000 0.00000
      vertex -9.00000 -3.25000 2.40000
      vertex -6.00000 -3.25000 2.40000
    endloop
  endfacet
  facet normal 0.00000 1.00000 0.00000
    outer loop
      vertex -9.00000 -3.25000 0.00000
      vertex -6.00000 -3.25000 2.40000
      vertex -6.00000 -3.25000 0.00000
    endloop
  endfacet
  facet normal -1.00000 0.00000 0.00000
    outer loop
      vertex -6.00000 -3.25000 0.00000
      vertex -6.00000 -3.25000 2.40000
      vertex -6.00000 3.25000 2.40000
    endloop
  endfacet
  facet normal -1.00000 0.00000 0.00000
    outer loop
      vertex -6.00000 -3.25000 0.00000
      vertex -6.00000 3.25000 2.40000
      vertex -6.00000 3.25000 0.00000
    endloop
  endfacet
  facet normal 0.00000 -1.00000 0.00000
    outer loop
      vertex -6.00000 3.25000 0.00000
      vertex -6.00000 3.25000 2.40000
      vertex -9.00000 3.25000 2.40000
    endloop
  endfacet
  facet normal 0.00000 -1.00000 0.00000
    outer loop
      vertex -6.00000 3.25000 0.00000
      vertex -9.00000 3.25000 2.40000
      vertex -9.00000 3.25000 0.00000
    endloop
  endfacet
  facet normal 1.00000 0.00000 0.00000
    outer loop
      vertex -9.00000 3.25000 0.00000
      vertex -9.00000 3.25000 2.40000
      vertex -9.00000 -3.25000 2.40000
    endloop
  endfacet
  facet normal 1.00000 0.00000 0.00000
    outer loop
      vertex -9.00000 3.25000 0.00000
      vertex -9.00000 -3.25000 2.40000
      vertex -9.00000 -3.25000 0.00000
    endloop
  endfacet
endsolid coal_tender_rear_coupler_pocket
